<mxfile host="app.diagrams.net" modified="2022-12-23T06:39:36.068Z" agent="5.0 (Windows NT 10.0; Win64; x64) AppleWebKit/537.36 (KHTML, like Gecko) Chrome/108.0.0.0 Safari/537.36" version="20.7.4" etag="X2vQpOOsUuyASj_xvMFi" type="github">
  <diagram id="-q5tKdaw4i2SjnvbITX_" name="Page-1">
    <mxGraphModel dx="454" dy="591" grid="1" gridSize="10" guides="1" tooltips="1" connect="1" arrows="1" fold="1" page="1" pageScale="1" pageWidth="850" pageHeight="1100" math="0" shadow="0">
      <root>
        <mxCell id="0" />
        <mxCell id="1" parent="0" />
        <mxCell id="gJEXnmYHxo_Vyh-LVhd0-23" style="edgeStyle=orthogonalEdgeStyle;orthogonalLoop=1;jettySize=auto;html=1;exitX=0;exitY=0.5;exitDx=0;exitDy=0;fontStyle=1" edge="1" parent="1" source="gJEXnmYHxo_Vyh-LVhd0-18" target="gJEXnmYHxo_Vyh-LVhd0-13">
          <mxGeometry relative="1" as="geometry" />
        </mxCell>
        <mxCell id="gJEXnmYHxo_Vyh-LVhd0-29" style="edgeStyle=orthogonalEdgeStyle;orthogonalLoop=1;jettySize=auto;html=1;exitX=1;exitY=0.5;exitDx=0;exitDy=0;fontStyle=1" edge="1" parent="1" source="gJEXnmYHxo_Vyh-LVhd0-18" target="gJEXnmYHxo_Vyh-LVhd0-30">
          <mxGeometry relative="1" as="geometry">
            <mxPoint x="550" y="410" as="targetPoint" />
          </mxGeometry>
        </mxCell>
        <mxCell id="gJEXnmYHxo_Vyh-LVhd0-18" value="" style="rounded=1;whiteSpace=wrap;html=1;fontStyle=1" vertex="1" parent="1">
          <mxGeometry x="220" y="222" width="160" height="150" as="geometry" />
        </mxCell>
        <mxCell id="gJEXnmYHxo_Vyh-LVhd0-1" value="vector2" style="swimlane;fontStyle=1;childLayout=stackLayout;horizontal=1;startSize=26;fillColor=none;horizontalStack=0;resizeParent=1;resizeParentMax=0;resizeLast=0;collapsible=1;marginBottom=0;html=1;rounded=1;" vertex="1" parent="1">
          <mxGeometry x="290" y="260" width="80" height="104" as="geometry" />
        </mxCell>
        <mxCell id="gJEXnmYHxo_Vyh-LVhd0-2" value="RECEIVED" style="text;strokeColor=none;fillColor=none;align=left;verticalAlign=top;spacingLeft=4;spacingRight=4;overflow=hidden;rotatable=0;points=[[0,0.5],[1,0.5]];portConstraint=eastwest;whiteSpace=wrap;html=1;rounded=1;fontStyle=1" vertex="1" parent="gJEXnmYHxo_Vyh-LVhd0-1">
          <mxGeometry y="26" width="80" height="26" as="geometry" />
        </mxCell>
        <mxCell id="gJEXnmYHxo_Vyh-LVhd0-3" value="UNKNOWN&lt;span style=&quot;white-space: pre;&quot;&gt;	&lt;/span&gt;" style="text;strokeColor=none;fillColor=none;align=left;verticalAlign=top;spacingLeft=4;spacingRight=4;overflow=hidden;rotatable=0;points=[[0,0.5],[1,0.5]];portConstraint=eastwest;whiteSpace=wrap;html=1;rounded=1;fontStyle=1" vertex="1" parent="gJEXnmYHxo_Vyh-LVhd0-1">
          <mxGeometry y="52" width="80" height="26" as="geometry" />
        </mxCell>
        <mxCell id="gJEXnmYHxo_Vyh-LVhd0-4" value="……" style="text;strokeColor=none;fillColor=none;align=left;verticalAlign=top;spacingLeft=4;spacingRight=4;overflow=hidden;rotatable=0;points=[[0,0.5],[1,0.5]];portConstraint=eastwest;whiteSpace=wrap;html=1;rounded=1;fontStyle=1" vertex="1" parent="gJEXnmYHxo_Vyh-LVhd0-1">
          <mxGeometry y="78" width="80" height="26" as="geometry" />
        </mxCell>
        <mxCell id="gJEXnmYHxo_Vyh-LVhd0-5" value="vector1" style="swimlane;fontStyle=1;childLayout=stackLayout;horizontal=1;startSize=26;fillColor=none;horizontalStack=0;resizeParent=1;resizeParentMax=0;resizeLast=0;collapsible=1;marginBottom=0;html=1;rounded=1;" vertex="1" parent="1">
          <mxGeometry x="230" y="260" width="50" height="104" as="geometry" />
        </mxCell>
        <mxCell id="gJEXnmYHxo_Vyh-LVhd0-6" value="data_1" style="text;strokeColor=none;fillColor=none;align=left;verticalAlign=top;spacingLeft=4;spacingRight=4;overflow=hidden;rotatable=0;points=[[0,0.5],[1,0.5]];portConstraint=eastwest;whiteSpace=wrap;html=1;rounded=1;fontStyle=1" vertex="1" parent="gJEXnmYHxo_Vyh-LVhd0-5">
          <mxGeometry y="26" width="50" height="26" as="geometry" />
        </mxCell>
        <mxCell id="gJEXnmYHxo_Vyh-LVhd0-7" value="data_2" style="text;strokeColor=none;fillColor=none;align=left;verticalAlign=top;spacingLeft=4;spacingRight=4;overflow=hidden;rotatable=0;points=[[0,0.5],[1,0.5]];portConstraint=eastwest;whiteSpace=wrap;html=1;rounded=1;fontStyle=1" vertex="1" parent="gJEXnmYHxo_Vyh-LVhd0-5">
          <mxGeometry y="52" width="50" height="26" as="geometry" />
        </mxCell>
        <mxCell id="gJEXnmYHxo_Vyh-LVhd0-8" value="……" style="text;strokeColor=none;fillColor=none;align=left;verticalAlign=top;spacingLeft=4;spacingRight=4;overflow=hidden;rotatable=0;points=[[0,0.5],[1,0.5]];portConstraint=eastwest;whiteSpace=wrap;html=1;rounded=1;fontStyle=1" vertex="1" parent="gJEXnmYHxo_Vyh-LVhd0-5">
          <mxGeometry y="78" width="50" height="26" as="geometry" />
        </mxCell>
        <mxCell id="gJEXnmYHxo_Vyh-LVhd0-22" style="edgeStyle=orthogonalEdgeStyle;orthogonalLoop=1;jettySize=auto;html=1;exitX=0.5;exitY=1;exitDx=0;exitDy=0;entryX=0;entryY=0.5;entryDx=0;entryDy=0;fontStyle=1" edge="1" parent="1" source="gJEXnmYHxo_Vyh-LVhd0-10" target="gJEXnmYHxo_Vyh-LVhd0-18">
          <mxGeometry relative="1" as="geometry" />
        </mxCell>
        <mxCell id="gJEXnmYHxo_Vyh-LVhd0-10" value="&lt;span&gt;接收到来自应用层的数据data_i&lt;/span&gt;" style="rounded=1;whiteSpace=wrap;html=1;fontStyle=1" vertex="1" parent="1">
          <mxGeometry x="40" y="210" width="140" height="60" as="geometry" />
        </mxCell>
        <mxCell id="gJEXnmYHxo_Vyh-LVhd0-13" value="vector1.push_back(data_i)&lt;br&gt;vector2.push_back(UNKNOWN)" style="rounded=1;whiteSpace=wrap;html=1;fontStyle=1" vertex="1" parent="1">
          <mxGeometry x="60" y="430" width="200" height="60" as="geometry" />
        </mxCell>
        <mxCell id="gJEXnmYHxo_Vyh-LVhd0-19" value="Sender" style="text;strokeColor=none;fillColor=none;html=1;fontSize=24;fontStyle=1;verticalAlign=middle;align=center;rounded=1;" vertex="1" parent="1">
          <mxGeometry x="250" y="220" width="100" height="40" as="geometry" />
        </mxCell>
        <mxCell id="gJEXnmYHxo_Vyh-LVhd0-25" style="edgeStyle=orthogonalEdgeStyle;orthogonalLoop=1;jettySize=auto;html=1;exitX=0.5;exitY=1;exitDx=0;exitDy=0;entryX=1;entryY=0.5;entryDx=0;entryDy=0;fontStyle=1" edge="1" parent="1" source="gJEXnmYHxo_Vyh-LVhd0-24" target="gJEXnmYHxo_Vyh-LVhd0-18">
          <mxGeometry relative="1" as="geometry" />
        </mxCell>
        <mxCell id="gJEXnmYHxo_Vyh-LVhd0-24" value="ACK Received" style="rounded=1;whiteSpace=wrap;html=1;fontStyle=1" vertex="1" parent="1">
          <mxGeometry x="425" y="210" width="120" height="40" as="geometry" />
        </mxCell>
        <mxCell id="gJEXnmYHxo_Vyh-LVhd0-35" value="" style="edgeStyle=orthogonalEdgeStyle;orthogonalLoop=1;jettySize=auto;html=1;fontStyle=1" edge="1" parent="1" source="gJEXnmYHxo_Vyh-LVhd0-30" target="gJEXnmYHxo_Vyh-LVhd0-34">
          <mxGeometry relative="1" as="geometry" />
        </mxCell>
        <mxCell id="gJEXnmYHxo_Vyh-LVhd0-37" value="是" style="edgeLabel;html=1;align=center;verticalAlign=middle;resizable=0;points=[];rounded=1;fontStyle=1" vertex="1" connectable="0" parent="gJEXnmYHxo_Vyh-LVhd0-35">
          <mxGeometry x="-0.3142" y="-2" relative="1" as="geometry">
            <mxPoint as="offset" />
          </mxGeometry>
        </mxCell>
        <mxCell id="gJEXnmYHxo_Vyh-LVhd0-30" value="在当前窗口" style="rhombus;whiteSpace=wrap;html=1;rounded=1;fontStyle=1" vertex="1" parent="1">
          <mxGeometry x="425" y="314" width="150" height="50" as="geometry" />
        </mxCell>
        <mxCell id="gJEXnmYHxo_Vyh-LVhd0-39" value="" style="edgeStyle=orthogonalEdgeStyle;orthogonalLoop=1;jettySize=auto;html=1;fontStyle=1" edge="1" parent="1" source="gJEXnmYHxo_Vyh-LVhd0-34" target="gJEXnmYHxo_Vyh-LVhd0-38">
          <mxGeometry relative="1" as="geometry" />
        </mxCell>
        <mxCell id="gJEXnmYHxo_Vyh-LVhd0-34" value="计算ACK相对于base的距离x" style="whiteSpace=wrap;html=1;rounded=1;fontStyle=1" vertex="1" parent="1">
          <mxGeometry x="405" y="400" width="190" height="40" as="geometry" />
        </mxCell>
        <mxCell id="gJEXnmYHxo_Vyh-LVhd0-41" style="edgeStyle=orthogonalEdgeStyle;orthogonalLoop=1;jettySize=auto;html=1;exitX=0.5;exitY=1;exitDx=0;exitDy=0;entryX=0.5;entryY=0;entryDx=0;entryDy=0;fontStyle=1" edge="1" parent="1" source="gJEXnmYHxo_Vyh-LVhd0-38" target="gJEXnmYHxo_Vyh-LVhd0-40">
          <mxGeometry relative="1" as="geometry" />
        </mxCell>
        <mxCell id="gJEXnmYHxo_Vyh-LVhd0-38" value="&lt;span style=&quot;font-size:12.0pt;mso-bidi-font-size:10.0pt;&lt;br/&gt;font-family:宋体;mso-ascii-font-family:&amp;quot;Times New Roman&amp;quot;;mso-hansi-font-family:&lt;br/&gt;&amp;quot;Times New Roman&amp;quot;;mso-bidi-font-family:&amp;quot;Times New Roman&amp;quot;;mso-font-kerning:1.0pt;&lt;br/&gt;mso-ansi-language:EN-US;mso-fareast-language:ZH-CN;mso-bidi-language:AR-SA&quot;&gt;将第&lt;/span&gt;&lt;span style=&quot;font-size:12.0pt;mso-bidi-font-size:10.0pt;font-family:&amp;quot;Times New Roman&amp;quot;,serif;&lt;br/&gt;mso-fareast-font-family:宋体;mso-font-kerning:1.0pt;mso-ansi-language:EN-US;&lt;br/&gt;mso-fareast-language:ZH-CN;mso-bidi-language:AR-SA&quot; lang=&quot;EN-US&quot;&gt;vector2&lt;/span&gt;&lt;span style=&quot;font-size:12.0pt;mso-bidi-font-size:10.0pt;font-family:宋体;mso-ascii-font-family:&lt;br/&gt;&amp;quot;Times New Roman&amp;quot;;mso-hansi-font-family:&amp;quot;Times New Roman&amp;quot;;mso-bidi-font-family:&lt;br/&gt;&amp;quot;Times New Roman&amp;quot;;mso-font-kerning:1.0pt;mso-ansi-language:EN-US;mso-fareast-language:&lt;br/&gt;ZH-CN;mso-bidi-language:AR-SA&quot;&gt;中位置x的元素修改为&lt;/span&gt;&lt;span style=&quot;font-size:12.0pt;mso-bidi-font-size:10.0pt;font-family:&amp;quot;Times New Roman&amp;quot;,serif;&lt;br/&gt;mso-fareast-font-family:宋体;mso-font-kerning:1.0pt;mso-ansi-language:EN-US;&lt;br/&gt;mso-fareast-language:ZH-CN;mso-bidi-language:AR-SA&quot; lang=&quot;EN-US&quot;&gt;RECEIVED&lt;/span&gt;" style="whiteSpace=wrap;html=1;rounded=1;fontStyle=1" vertex="1" parent="1">
          <mxGeometry x="400" y="460" width="200" height="40" as="geometry" />
        </mxCell>
        <mxCell id="gJEXnmYHxo_Vyh-LVhd0-85" style="edgeStyle=orthogonalEdgeStyle;orthogonalLoop=1;jettySize=auto;html=1;exitX=0;exitY=0.5;exitDx=0;exitDy=0;entryX=1;entryY=0.5;entryDx=0;entryDy=0;fontStyle=1" edge="1" parent="1" source="gJEXnmYHxo_Vyh-LVhd0-40" target="gJEXnmYHxo_Vyh-LVhd0-71">
          <mxGeometry relative="1" as="geometry" />
        </mxCell>
        <mxCell id="gJEXnmYHxo_Vyh-LVhd0-86" value="是" style="edgeLabel;html=1;align=center;verticalAlign=middle;resizable=0;points=[];rounded=1;fontStyle=1" vertex="1" connectable="0" parent="gJEXnmYHxo_Vyh-LVhd0-85">
          <mxGeometry x="0.2409" relative="1" as="geometry">
            <mxPoint x="16" as="offset" />
          </mxGeometry>
        </mxCell>
        <mxCell id="gJEXnmYHxo_Vyh-LVhd0-40" value="&lt;span lang=&quot;EN-US&quot;&gt;ack.acknum == base?&lt;/span&gt;" style="rhombus;whiteSpace=wrap;html=1;rounded=1;fontStyle=1" vertex="1" parent="1">
          <mxGeometry x="410" y="520" width="180" height="60" as="geometry" />
        </mxCell>
        <mxCell id="gJEXnmYHxo_Vyh-LVhd0-70" value="" style="edgeStyle=orthogonalEdgeStyle;orthogonalLoop=1;jettySize=auto;html=1;fontStyle=1" edge="1" parent="1" source="gJEXnmYHxo_Vyh-LVhd0-71" target="gJEXnmYHxo_Vyh-LVhd0-73">
          <mxGeometry relative="1" as="geometry" />
        </mxCell>
        <mxCell id="gJEXnmYHxo_Vyh-LVhd0-71" value="开始移动窗口" style="whiteSpace=wrap;html=1;rounded=1;fontStyle=1" vertex="1" parent="1">
          <mxGeometry x="200" y="535" width="120" height="30" as="geometry" />
        </mxCell>
        <mxCell id="gJEXnmYHxo_Vyh-LVhd0-72" value="" style="edgeStyle=orthogonalEdgeStyle;orthogonalLoop=1;jettySize=auto;html=1;fontStyle=1" edge="1" parent="1" source="gJEXnmYHxo_Vyh-LVhd0-73" target="gJEXnmYHxo_Vyh-LVhd0-76">
          <mxGeometry relative="1" as="geometry" />
        </mxCell>
        <mxCell id="gJEXnmYHxo_Vyh-LVhd0-73" value="&lt;span style=&quot;font-size:12.0pt;mso-bidi-font-size:10.0pt;&lt;br/&gt;font-family:宋体;mso-ascii-font-family:&amp;quot;Times New Roman&amp;quot;;mso-hansi-font-family:&lt;br/&gt;&amp;quot;Times New Roman&amp;quot;;mso-bidi-font-family:&amp;quot;Times New Roman&amp;quot;;mso-font-kerning:1.0pt;&lt;br/&gt;mso-ansi-language:EN-US;mso-fareast-language:ZH-CN;mso-bidi-language:AR-SA&quot;&gt;选取两个&lt;/span&gt;&lt;span style=&quot;font-size:12.0pt;mso-bidi-font-size:10.0pt;font-family:&amp;quot;Times New Roman&amp;quot;,serif;&lt;br/&gt;mso-fareast-font-family:宋体;mso-font-kerning:1.0pt;mso-ansi-language:EN-US;&lt;br/&gt;mso-fareast-language:ZH-CN;mso-bidi-language:AR-SA&quot; lang=&quot;EN-US&quot;&gt;vector&lt;/span&gt;&lt;span style=&quot;font-size:12.0pt;mso-bidi-font-size:10.0pt;font-family:宋体;mso-ascii-font-family:&lt;br/&gt;&amp;quot;Times New Roman&amp;quot;;mso-hansi-font-family:&amp;quot;Times New Roman&amp;quot;;mso-bidi-font-family:&lt;br/&gt;&amp;quot;Times New Roman&amp;quot;;mso-font-kerning:1.0pt;mso-ansi-language:EN-US;mso-fareast-language:&lt;br/&gt;ZH-CN;mso-bidi-language:AR-SA&quot;&gt;中的第一个元素&lt;/span&gt;" style="whiteSpace=wrap;html=1;rounded=1;fontStyle=1" vertex="1" parent="1">
          <mxGeometry x="165" y="600" width="190" height="40" as="geometry" />
        </mxCell>
        <mxCell id="gJEXnmYHxo_Vyh-LVhd0-74" value="" style="edgeStyle=orthogonalEdgeStyle;orthogonalLoop=1;jettySize=auto;html=1;fontStyle=1" edge="1" parent="1" source="gJEXnmYHxo_Vyh-LVhd0-76" target="gJEXnmYHxo_Vyh-LVhd0-78">
          <mxGeometry relative="1" as="geometry" />
        </mxCell>
        <mxCell id="gJEXnmYHxo_Vyh-LVhd0-75" value="是" style="edgeLabel;html=1;align=center;verticalAlign=middle;resizable=0;points=[];rounded=1;fontStyle=1" vertex="1" connectable="0" parent="gJEXnmYHxo_Vyh-LVhd0-74">
          <mxGeometry x="0.2452" relative="1" as="geometry">
            <mxPoint y="-11" as="offset" />
          </mxGeometry>
        </mxCell>
        <mxCell id="gJEXnmYHxo_Vyh-LVhd0-76" value="&lt;span style=&quot;font-size:12.0pt;mso-bidi-font-size:10.0pt;&lt;br/&gt;font-family:宋体;mso-ascii-font-family:&amp;quot;Times New Roman&amp;quot;;mso-hansi-font-family:&lt;br/&gt;&amp;quot;Times New Roman&amp;quot;;mso-bidi-font-family:&amp;quot;Times New Roman&amp;quot;;mso-font-kerning:1.0pt;&lt;br/&gt;mso-ansi-language:EN-US;mso-fareast-language:ZH-CN;mso-bidi-language:AR-SA&quot;&gt;状态为&lt;/span&gt;&lt;span style=&quot;font-size:12.0pt;mso-bidi-font-size:10.0pt;font-family:&amp;quot;Times New Roman&amp;quot;,serif;&lt;br/&gt;mso-fareast-font-family:宋体;mso-font-kerning:1.0pt;mso-ansi-language:EN-US;&lt;br/&gt;mso-fareast-language:ZH-CN;mso-bidi-language:AR-SA&quot; lang=&quot;EN-US&quot;&gt;RECEIVEED&lt;/span&gt;" style="rhombus;whiteSpace=wrap;html=1;rounded=1;fontStyle=1" vertex="1" parent="1">
          <mxGeometry x="190" y="660" width="140" height="60" as="geometry" />
        </mxCell>
        <mxCell id="gJEXnmYHxo_Vyh-LVhd0-77" style="edgeStyle=orthogonalEdgeStyle;orthogonalLoop=1;jettySize=auto;html=1;exitX=0.5;exitY=1;exitDx=0;exitDy=0;entryX=0.5;entryY=0;entryDx=0;entryDy=0;fontStyle=1" edge="1" parent="1" source="gJEXnmYHxo_Vyh-LVhd0-78" target="gJEXnmYHxo_Vyh-LVhd0-83">
          <mxGeometry relative="1" as="geometry" />
        </mxCell>
        <mxCell id="gJEXnmYHxo_Vyh-LVhd0-78" value="&lt;span style=&quot;font-size:12.0pt;mso-bidi-font-size:10.0pt;&lt;br/&gt;font-family:宋体;mso-ascii-font-family:&amp;quot;Times New Roman&amp;quot;;mso-hansi-font-family:&lt;br/&gt;&amp;quot;Times New Roman&amp;quot;;mso-bidi-font-family:&amp;quot;Times New Roman&amp;quot;;mso-font-kerning:1.0pt;&lt;br/&gt;mso-ansi-language:EN-US;mso-fareast-language:ZH-CN;mso-bidi-language:AR-SA&quot;&gt;将状态以及对应的包从&lt;/span&gt;&lt;span style=&quot;font-size:12.0pt;mso-bidi-font-size:10.0pt;font-family:&amp;quot;Times New Roman&amp;quot;,serif;&lt;br/&gt;mso-fareast-font-family:宋体;mso-font-kerning:1.0pt;mso-ansi-language:EN-US;&lt;br/&gt;mso-fareast-language:ZH-CN;mso-bidi-language:AR-SA&quot; lang=&quot;EN-US&quot;&gt;vector&lt;/span&gt;&lt;span style=&quot;font-size:12.0pt;mso-bidi-font-size:10.0pt;font-family:宋体;mso-ascii-font-family:&lt;br/&gt;&amp;quot;Times New Roman&amp;quot;;mso-hansi-font-family:&amp;quot;Times New Roman&amp;quot;;mso-bidi-font-family:&lt;br/&gt;&amp;quot;Times New Roman&amp;quot;;mso-font-kerning:1.0pt;mso-ansi-language:EN-US;mso-fareast-language:&lt;br/&gt;ZH-CN;mso-bidi-language:AR-SA&quot;&gt;中移除&lt;/span&gt;" style="whiteSpace=wrap;html=1;rounded=1;fontStyle=1" vertex="1" parent="1">
          <mxGeometry x="155" y="760" width="210" height="40" as="geometry" />
        </mxCell>
        <mxCell id="gJEXnmYHxo_Vyh-LVhd0-79" style="edgeStyle=orthogonalEdgeStyle;orthogonalLoop=1;jettySize=auto;html=1;exitX=1;exitY=0.5;exitDx=0;exitDy=0;entryX=0.5;entryY=0;entryDx=0;entryDy=0;fontStyle=1" edge="1" parent="1" source="gJEXnmYHxo_Vyh-LVhd0-83" target="gJEXnmYHxo_Vyh-LVhd0-73">
          <mxGeometry relative="1" as="geometry">
            <Array as="points">
              <mxPoint x="400" y="865" />
              <mxPoint x="400" y="580" />
              <mxPoint x="260" y="580" />
            </Array>
          </mxGeometry>
        </mxCell>
        <mxCell id="gJEXnmYHxo_Vyh-LVhd0-80" value="否" style="edgeLabel;html=1;align=center;verticalAlign=middle;resizable=0;points=[];rounded=1;fontStyle=1" vertex="1" connectable="0" parent="gJEXnmYHxo_Vyh-LVhd0-79">
          <mxGeometry x="-0.3435" y="1" relative="1" as="geometry">
            <mxPoint x="1" y="-26" as="offset" />
          </mxGeometry>
        </mxCell>
        <mxCell id="gJEXnmYHxo_Vyh-LVhd0-89" style="edgeStyle=orthogonalEdgeStyle;orthogonalLoop=1;jettySize=auto;html=1;exitX=0;exitY=0.5;exitDx=0;exitDy=0;entryX=1;entryY=0.5;entryDx=0;entryDy=0;fontStyle=1" edge="1" parent="1" source="gJEXnmYHxo_Vyh-LVhd0-83" target="gJEXnmYHxo_Vyh-LVhd0-84">
          <mxGeometry relative="1" as="geometry" />
        </mxCell>
        <mxCell id="gJEXnmYHxo_Vyh-LVhd0-90" value="是" style="edgeLabel;html=1;align=center;verticalAlign=middle;resizable=0;points=[];rounded=1;fontStyle=1" vertex="1" connectable="0" parent="gJEXnmYHxo_Vyh-LVhd0-89">
          <mxGeometry x="0.2187" y="-2" relative="1" as="geometry">
            <mxPoint x="7" y="2" as="offset" />
          </mxGeometry>
        </mxCell>
        <mxCell id="gJEXnmYHxo_Vyh-LVhd0-83" value="vector为空&lt;br&gt;OR&lt;br&gt;&lt;span style=&quot;font-size:12.0pt;mso-bidi-font-size:10.0pt;&lt;br/&gt;font-family:宋体;mso-ascii-font-family:&amp;quot;Times New Roman&amp;quot;;mso-hansi-font-family:&lt;br/&gt;&amp;quot;Times New Roman&amp;quot;;mso-bidi-font-family:&amp;quot;Times New Roman&amp;quot;;mso-font-kerning:1.0pt;&lt;br/&gt;mso-ansi-language:EN-US;mso-fareast-language:ZH-CN;mso-bidi-language:AR-SA&quot;&gt;状态为&lt;/span&gt;&lt;span style=&quot;font-size:12.0pt;mso-bidi-font-size:10.0pt;font-family:&amp;quot;Times New Roman&amp;quot;,serif;&lt;br/&gt;mso-fareast-font-family:宋体;mso-font-kerning:1.0pt;mso-ansi-language:EN-US;&lt;br/&gt;mso-fareast-language:ZH-CN;mso-bidi-language:AR-SA&quot; lang=&quot;EN-US&quot;&gt;UNKNOWN&lt;/span&gt;" style="rhombus;whiteSpace=wrap;html=1;rounded=1;fontStyle=1" vertex="1" parent="1">
          <mxGeometry x="160" y="820" width="200" height="90" as="geometry" />
        </mxCell>
        <mxCell id="gJEXnmYHxo_Vyh-LVhd0-84" value="stop" style="ellipse;whiteSpace=wrap;html=1;aspect=fixed;rounded=1;fontStyle=1" vertex="1" parent="1">
          <mxGeometry x="50" y="840" width="50" height="50" as="geometry" />
        </mxCell>
      </root>
    </mxGraphModel>
  </diagram>
</mxfile>
